<svg id="Layer_1" data-name="Layer 1" xmlns="http://www.w3.org/2000/svg" viewBox="0 0 112.24 50"><defs><style>.cls-1{fill:#fff;}.cls-2{fill:#fdca40;}</style></defs><title>nuki-logo-white</title><path class="cls-1" d="M0,21.24A0.77,0.77,0,0,1,.78,20.5h1L18.15,36.23h0V21.69a0.78,0.78,0,0,1,.78-0.78h5a0.81,0.81,0,0,1,.78.78V49.26a0.77,0.77,0,0,1-.78.74H23.23a1.21,1.21,0,0,1-.53-0.2L6.51,33.53h0V48.81a0.78,0.78,0,0,1-.78.78H0.82A0.81,0.81,0,0,1,0,48.81V21.24Z" transform="translate(0 0)"/><path class="cls-1" d="M36.54,21.69a0.81,0.81,0,0,1,.78-0.78h5a0.78,0.78,0,0,1,.78.78V38.28a5.08,5.08,0,0,0,10.16,0V21.69A0.78,0.78,0,0,1,54,20.91h5a0.81,0.81,0,0,1,.78.78V38.61a11.68,11.68,0,0,1-23.35,0V21.69h0.07Z" transform="translate(0 0)"/><path class="cls-1" d="M71.86,21.9a1,1,0,0,1,1-1h4.79a1,1,0,0,1,1,1V32.67l9.1-11.35a1.22,1.22,0,0,1,.78-0.41h5.16a1,1,0,0,1,.74,1.52l-9.59,12L95.25,48a1,1,0,0,1-.78,1.52H88.82a1.12,1.12,0,0,1-.74-0.29L78.62,36.4V48.61a1,1,0,0,1-1,1H72.84a1,1,0,0,1-1-1V21.9h0Z" transform="translate(0 0)"/><path class="cls-1" d="M104.8,21.69a0.81,0.81,0,0,1,.78-0.78h4.92a0.81,0.81,0,0,1,.78.78V48.81a0.81,0.81,0,0,1-.78.78h-4.92a0.81,0.81,0,0,1-.78-0.78V21.69Z" transform="translate(0 0)"/><path class="cls-2" d="M103.83,4.27a4.16,4.16,0,0,1,4-4.27H108a4.24,4.24,0,1,1,0,8.48h0a4.14,4.14,0,0,1-4.17-4.11S103.83,4.3,103.83,4.27Z" transform="translate(0 0)"/></svg>